<svg xmlns="http://www.w3.org/2000/svg" width="216" height="64" viewBox="0 0 216 64" fill="none">
    <rect x="0.5" y="0.5" width="215" height="63" rx="6.5" fill="#0C0D10"/>
    <rect x="0.5" y="0.5" width="215" height="63" rx="6.5" stroke="#A6A6A6"/>
    <path d="M140.22 30.7206V34.3862H137.922V36.7901H140.22V44.9581C140.22 47.7472 141.482 48.8628 144.656 48.8628C145.214 48.8628 145.745 48.7964 146.21 48.7167V46.3393C145.811 46.3792 145.559 46.4058 145.121 46.4058C143.7 46.4058 143.075 45.7417 143.075 44.2276V36.7901H146.21V34.3862H143.075V30.7206H140.22Z" fill="white"/>
    <path d="M154.296 49.062C158.519 49.062 161.109 46.2331 161.109 41.5448C161.109 36.8831 158.506 34.0409 154.296 34.0409C150.073 34.0409 147.469 36.8831 147.469 41.5448C147.469 46.2331 150.059 49.062 154.296 49.062ZM154.296 46.5253C151.812 46.5253 150.418 44.7057 150.418 41.5448C150.418 38.4104 151.812 36.5776 154.296 36.5776C156.766 36.5776 158.174 38.4104 158.174 41.5448C158.174 44.6925 156.766 46.5253 154.296 46.5253Z" fill="white"/>
    <path d="M163.325 48.7831H166.181V40.2432C166.181 38.2112 167.708 36.8433 169.873 36.8433C170.377 36.8433 171.227 36.9362 171.467 37.0159V34.2003C171.161 34.1206 170.617 34.0808 170.192 34.0808C168.306 34.0808 166.699 35.1167 166.287 36.5378H166.074V34.3198H163.325V48.7831Z" fill="white"/>
    <path d="M178.557 36.4714C180.668 36.4714 182.05 37.9456 182.116 40.2167H174.811C174.971 37.9589 176.445 36.4714 178.557 36.4714ZM182.103 44.8784C181.571 46.0073 180.389 46.6315 178.663 46.6315C176.378 46.6315 174.904 45.0245 174.811 42.4878V42.3284H185.025V41.3323C185.025 36.7901 182.594 34.0409 178.57 34.0409C174.493 34.0409 171.903 36.9761 171.903 41.5979C171.903 46.2198 174.439 49.062 178.583 49.062C181.89 49.062 184.201 47.4683 184.852 44.8784H182.103Z" fill="white"/>
    <path d="M121.494 43.442C121.715 46.9936 124.674 49.2649 129.079 49.2649C133.787 49.2649 136.733 46.8834 136.733 43.0841C136.733 40.097 135.053 38.4451 130.979 37.4953L128.79 36.9584C126.202 36.3527 125.156 35.5406 125.156 34.1227C125.156 32.3332 126.78 31.1631 129.217 31.1631C131.529 31.1631 133.126 32.3056 133.415 34.1365H136.416C136.237 30.7914 133.291 28.4375 129.258 28.4375C124.922 28.4375 122.031 30.7914 122.031 34.3292C122.031 37.2475 123.669 38.982 127.262 39.8217L129.822 40.4411C132.452 41.0606 133.608 41.9691 133.608 43.4833C133.608 45.2453 131.791 46.5255 129.313 46.5255C126.656 46.5255 124.812 45.3279 124.55 43.442H121.494Z" fill="white"/>
    <path d="M91.9145 34.0808C89.9489 34.0808 88.2489 35.0636 87.3723 36.7104H87.1598V34.3198H84.4106V53.5909H87.2661V46.5917H87.4919C88.2489 48.119 89.8825 49.0222 91.9411 49.0222C95.5934 49.0222 97.9177 46.1401 97.9177 41.5448C97.9177 36.9495 95.5934 34.0808 91.9145 34.0808ZM91.1044 46.4589C88.7137 46.4589 87.213 44.5729 87.213 41.5581C87.213 38.53 88.7137 36.644 91.1177 36.644C93.5348 36.644 94.9825 38.4901 94.9825 41.5448C94.9825 44.6128 93.5348 46.4589 91.1044 46.4589Z" fill="white"/>
    <path d="M107.909 34.0808C105.944 34.0808 104.244 35.0636 103.367 36.7104H103.155V34.3198H100.405V53.5909H103.261V46.5917H103.487C104.244 48.119 105.877 49.0222 107.936 49.0222C111.588 49.0222 113.913 46.1401 113.913 41.5448C113.913 36.9495 111.588 34.0808 107.909 34.0808ZM107.099 46.4589C104.709 46.4589 103.208 44.5729 103.208 41.5581C103.208 38.53 104.709 36.644 107.113 36.644C109.53 36.644 110.977 38.4901 110.977 41.5448C110.977 44.6128 109.53 46.4589 107.099 46.4589Z" fill="white"/>
    <path d="M79.2874 48.7831H82.5636L75.3917 28.9193H72.0742L64.9023 48.7831H68.0684L69.8993 43.5109H77.4704L79.2874 48.7831ZM73.5747 32.5259H73.8087L76.6857 40.9229H70.6839L73.5747 32.5259Z" fill="white"/>
    <path d="M66.8203 13.9363V23.5188H70.2801C73.1355 23.5188 74.7891 21.759 74.7891 18.6977C74.7891 15.6828 73.1223 13.9363 70.2801 13.9363H66.8203ZM68.3078 15.291H70.1141C72.0996 15.291 73.275 16.5527 73.275 18.7176C73.275 20.9156 72.1195 22.1641 70.1141 22.1641H68.3078V15.291Z" fill="white"/>
    <path d="M79.8532 23.6582C81.9649 23.6582 83.2598 22.2438 83.2598 19.8996C83.2598 17.5687 81.9583 16.1477 79.8532 16.1477C77.7415 16.1477 76.4399 17.5687 76.4399 19.8996C76.4399 22.2438 77.7348 23.6582 79.8532 23.6582ZM79.8532 22.3898C78.6114 22.3898 77.9141 21.4801 77.9141 19.8996C77.9141 18.3324 78.6114 17.416 79.8532 17.416C81.0884 17.416 81.7923 18.3324 81.7923 19.8996C81.7923 21.4734 81.0884 22.3898 79.8532 22.3898Z" fill="white"/>
    <path d="M94.2873 16.2871H92.8595L91.5713 21.8055H91.4584L89.9709 16.2871H88.6029L87.1154 21.8055H87.0091L85.7142 16.2871H84.2666L86.2588 23.5188H87.7263L89.2138 18.193H89.3267L90.8209 23.5188H92.3017L94.2873 16.2871Z" fill="white"/>
    <path d="M95.9315 23.5188H97.3592V19.2887C97.3592 18.1598 98.0299 17.4559 99.0858 17.4559C100.142 17.4559 100.646 18.0336 100.646 19.1957V23.5188H102.074V18.8371C102.074 17.1172 101.184 16.1477 99.5705 16.1477C98.4815 16.1477 97.7643 16.6324 97.4123 17.4359H97.3061V16.2871H95.9315V23.5188Z" fill="white"/>
    <path d="M104.323 23.5188H105.75V13.4648H104.323V23.5188Z" fill="white"/>
    <path d="M111.12 23.6582C113.232 23.6582 114.527 22.2438 114.527 19.8996C114.527 17.5687 113.225 16.1477 111.12 16.1477C109.008 16.1477 107.707 17.5687 107.707 19.8996C107.707 22.2438 109.002 23.6582 111.12 23.6582ZM111.12 22.3898C109.878 22.3898 109.181 21.4801 109.181 19.8996C109.181 18.3324 109.878 17.416 111.12 17.416C112.355 17.416 113.059 18.3324 113.059 19.8996C113.059 21.4734 112.355 22.3898 111.12 22.3898Z" fill="white"/>
    <path d="M118.781 22.4363C118.004 22.4363 117.439 22.0578 117.439 21.407C117.439 20.7695 117.891 20.4309 118.887 20.3645L120.653 20.2516V20.8559C120.653 21.7523 119.856 22.4363 118.781 22.4363ZM118.415 23.6383C119.365 23.6383 120.155 23.2266 120.587 22.5027H120.7V23.5188H122.074V18.5781C122.074 17.0508 121.052 16.1477 119.239 16.1477C117.599 16.1477 116.43 16.9445 116.284 18.1863H117.665C117.824 17.675 118.375 17.3828 119.172 17.3828C120.149 17.3828 120.653 17.8145 120.653 18.5781V19.2023L118.694 19.3152C116.974 19.4215 116.005 20.1719 116.005 21.4734C116.005 22.7949 117.021 23.6383 118.415 23.6383Z" fill="white"/>
    <path d="M126.919 23.6383C127.915 23.6383 128.759 23.1668 129.19 22.3766H129.303V23.5188H130.671V13.4648H129.244V17.4359H129.137C128.745 16.6391 127.909 16.1676 126.919 16.1676C125.093 16.1676 123.918 17.6152 123.918 19.8996C123.918 22.1906 125.08 23.6383 126.919 23.6383ZM127.324 17.4492C128.52 17.4492 129.27 18.3988 129.27 19.9062C129.27 21.4203 128.526 22.3566 127.324 22.3566C126.116 22.3566 125.392 21.4336 125.392 19.8996C125.392 18.3789 126.122 17.4492 127.324 17.4492Z" fill="white"/>
    <path d="M139.93 23.6582C142.041 23.6582 143.336 22.2438 143.336 19.8996C143.336 17.5687 142.035 16.1477 139.93 16.1477C137.818 16.1477 136.516 17.5687 136.516 19.8996C136.516 22.2438 137.811 23.6582 139.93 23.6582ZM139.93 22.3898C138.688 22.3898 137.991 21.4801 137.991 19.8996C137.991 18.3324 138.688 17.416 139.93 17.416C141.165 17.416 141.869 18.3324 141.869 19.8996C141.869 21.4734 141.165 22.3898 139.93 22.3898Z" fill="white"/>
    <path d="M145.226 23.5188H146.654V19.2887C146.654 18.1598 147.325 17.4559 148.38 17.4559C149.436 17.4559 149.941 18.0336 149.941 19.1957V23.5188H151.369V18.8371C151.369 17.1172 150.479 16.1477 148.865 16.1477C147.776 16.1477 147.059 16.6324 146.707 17.4359H146.601V16.2871H145.226V23.5188Z" fill="white"/>
    <path d="M157.944 14.4875V16.3203H156.795V17.5223H157.944V21.6062C157.944 23.0008 158.575 23.5586 160.162 23.5586C160.441 23.5586 160.707 23.5254 160.939 23.4855V22.2969C160.74 22.3168 160.614 22.3301 160.395 22.3301C159.684 22.3301 159.372 21.998 159.372 21.241V17.5223H160.939V16.3203H159.372V14.4875H157.944Z" fill="white"/>
    <path d="M162.856 23.5188H164.283V19.2953C164.283 18.1996 164.934 17.4625 166.103 17.4625C167.112 17.4625 167.65 18.0469 167.65 19.2023V23.5188H169.078V18.8504C169.078 17.1305 168.128 16.1543 166.588 16.1543C165.499 16.1543 164.735 16.6391 164.383 17.4492H164.27V13.4648H162.856V23.5188Z" fill="white"/>
    <path d="M174.228 17.3629C175.284 17.3629 175.975 18.1 176.008 19.2355H172.356C172.435 18.1066 173.173 17.3629 174.228 17.3629ZM176.001 21.5664C175.736 22.1309 175.145 22.443 174.282 22.443C173.139 22.443 172.402 21.6395 172.356 20.3711V20.2914H177.462V19.7934C177.462 17.5223 176.247 16.1477 174.235 16.1477C172.196 16.1477 170.901 17.6152 170.901 19.9262C170.901 22.2371 172.17 23.6582 174.242 23.6582C175.895 23.6582 177.051 22.8613 177.376 21.5664H176.001Z" fill="white"/>
    <path d="M48.5195 32.4817C48.5541 29.7921 49.9985 27.2471 52.2899 25.8384C50.8444 23.7739 48.4231 22.4649 45.9041 22.3861C43.2173 22.1041 40.6126 23.9938 39.2435 23.9938C37.8478 23.9938 35.7398 22.4141 33.4698 22.4608C30.511 22.5564 27.7527 24.2386 26.3132 26.8254C23.2188 32.1829 25.5269 40.0566 28.4911 44.3871C29.9741 46.5077 31.7074 48.8764 33.9753 48.7924C36.1946 48.7004 37.0235 47.3773 39.7023 47.3773C42.3564 47.3773 43.134 48.7924 45.4479 48.739C47.8294 48.7004 49.3298 46.609 50.7608 44.4684C51.8263 42.9574 52.6463 41.2875 53.1902 39.5204C50.3916 38.3367 48.5227 35.5203 48.5195 32.4817Z" fill="white"/>
    <path d="M44.1488 19.5381C45.4472 17.9794 46.0869 15.9759 45.932 13.9531C43.9483 14.1615 42.1159 15.1096 40.7999 16.6085C39.513 18.073 38.8433 20.0413 38.97 21.9867C40.9544 22.0072 42.9053 21.0848 44.1488 19.5381Z" fill="white"/>
</svg>