<svg xmlns="http://www.w3.org/2000/svg" width="216" height="64" viewBox="0 0 216 64" fill="none">
    <rect x="0.5" y="0.5" width="215" height="63" rx="4.5" fill="black"/>
    <rect x="0.5" y="0.5" width="215" height="63" rx="4.5" stroke="#A6A6A6"/>
    <path d="M171.095 48.0006H174.081V27.998H171.095V48.0006ZM197.987 35.2038L194.564 43.8756H194.462L190.91 35.2038H187.694L193.022 47.3238L189.983 54.0662H193.097L201.307 35.2038H197.987ZM181.054 45.7287C180.078 45.7287 178.713 45.2393 178.713 44.03C178.713 42.4862 180.412 41.8943 181.878 41.8943C183.19 41.8943 183.809 42.1769 184.606 42.5631C184.374 44.4163 182.779 45.7287 181.054 45.7287ZM181.415 34.7662C179.254 34.7662 177.015 35.7187 176.089 37.8287L178.739 38.935C179.305 37.8287 180.359 37.4687 181.467 37.4687C183.011 37.4687 184.58 38.3943 184.606 40.0419V40.2475C184.065 39.9387 182.907 39.4756 181.492 39.4756C178.635 39.4756 175.727 41.0449 175.727 43.9787C175.727 46.655 178.07 48.3793 180.694 48.3793C182.7 48.3793 183.809 47.4787 184.502 46.4231H184.606V47.9681H187.489V40.2987C187.489 36.7475 184.836 34.7662 181.415 34.7662ZM162.964 37.6387H158.718V30.7825H162.964C165.196 30.7825 166.463 32.63 166.463 34.2105C166.463 35.7606 165.196 37.6387 162.964 37.6387ZM162.887 27.998H155.734V48.0006H158.718V40.4225H162.887C166.196 40.4225 169.449 38.0275 169.449 34.2105C169.449 30.3943 166.196 27.998 162.887 27.998ZM123.877 45.7324C121.815 45.7324 120.088 44.0049 120.088 41.6343C120.088 39.2363 121.815 37.4843 123.877 37.4843C125.913 37.4843 127.512 39.2363 127.512 41.6343C127.512 44.0049 125.913 45.7324 123.877 45.7324ZM127.305 36.3238H127.202C126.532 35.5249 125.243 34.8031 123.62 34.8031C120.217 34.8031 117.098 37.7937 117.098 41.6343C117.098 45.4487 120.217 48.4131 123.62 48.4131C125.243 48.4131 126.532 47.6911 127.202 46.8668H127.305V47.8455C127.305 50.45 125.913 51.8412 123.671 51.8412C121.841 51.8412 120.707 50.5268 120.243 49.4187L117.64 50.5012C118.387 52.305 120.371 54.5225 123.671 54.5225C127.177 54.5225 130.142 52.46 130.142 47.4331V35.2156H127.305V36.3238ZM132.204 48.0006H135.193V27.998H132.204V48.0006ZM139.601 41.4019C139.524 38.7724 141.638 37.4324 143.158 37.4324C144.345 37.4324 145.349 38.0255 145.685 38.8756L139.601 41.4019ZM148.88 39.1331C148.313 37.6131 146.587 34.8031 143.055 34.8031C139.549 34.8031 136.637 37.5612 136.637 41.6081C136.637 45.4231 139.524 48.4131 143.39 48.4131C146.508 48.4131 148.313 46.5062 149.062 45.3974L146.742 43.8505C145.968 44.9849 144.912 45.7324 143.39 45.7324C141.87 45.7324 140.787 45.0363 140.092 43.67L149.19 39.9068L148.88 39.1331ZM76.3879 36.8911V39.778H83.2959C83.0897 41.4019 82.5484 42.5875 81.7234 43.4124C80.7178 44.4174 79.1453 45.5262 76.3879 45.5262C72.1346 45.5262 68.8097 42.098 68.8097 37.8449C68.8097 33.5918 72.1346 30.1631 76.3879 30.1631C78.6821 30.1631 80.3572 31.0655 81.5946 32.2255L83.6316 30.1887C81.9041 28.5393 79.6103 27.2763 76.3879 27.2763C70.5615 27.2763 65.6641 32.0193 65.6641 37.8449C65.6641 43.67 70.5615 48.4131 76.3879 48.4131C79.5322 48.4131 81.9041 47.3819 83.7597 45.4487C85.6673 43.5412 86.2604 40.8606 86.2604 38.695C86.2604 38.0255 86.2084 37.4068 86.1053 36.8911H76.3879ZM94.1141 45.7324C92.0516 45.7324 90.2729 44.0311 90.2729 41.6081C90.2729 39.1593 92.0516 37.4843 94.1141 37.4843C96.1759 37.4843 97.9546 39.1593 97.9546 41.6081C97.9546 44.0311 96.1759 45.7324 94.1141 45.7324ZM94.1141 34.8031C90.3497 34.8031 87.2828 37.6643 87.2828 41.6081C87.2828 45.5262 90.3497 48.4131 94.1141 48.4131C97.8772 48.4131 100.945 45.5262 100.945 41.6081C100.945 37.6643 97.8772 34.8031 94.1141 34.8031ZM109.015 45.7324C106.953 45.7324 105.174 44.0311 105.174 41.6081C105.174 39.1593 106.953 37.4843 109.015 37.4843C111.077 37.4843 112.855 39.1593 112.855 41.6081C112.855 44.0311 111.077 45.7324 109.015 45.7324ZM109.015 34.8031C105.252 34.8031 102.185 37.6643 102.185 41.6081C102.185 45.5262 105.252 48.4131 109.015 48.4131C112.779 48.4131 115.846 45.5262 115.846 41.6081C115.846 37.6643 112.779 34.8031 109.015 34.8031Z" fill="white"/>
    <path d="M71.1645 21.1758C69.73 21.1758 68.4961 20.671 67.5013 19.6764C66.506 18.6811 66.002 17.4349 66.002 15.9858C66.002 14.5367 66.5063 13.2927 67.5013 12.2951C68.4961 11.3003 69.73 10.7958 71.1645 10.7958C71.8953 10.7958 72.5773 10.922 73.2291 11.1848C73.8812 11.4477 74.4147 11.8126 74.8348 12.2901L74.9338 12.403L73.8148 13.5217L73.7029 13.3842C73.4243 13.0419 73.07 12.776 72.621 12.5826C72.1737 12.3898 71.6837 12.3008 71.1645 12.3008C70.1541 12.3008 69.3158 12.6439 68.6157 13.3414C68.6155 13.3416 68.6152 13.3415 68.6151 13.3417C67.9309 14.0533 67.5869 14.9197 67.5869 15.9858C67.5869 17.0527 67.9313 17.9193 68.6163 18.6311C69.3164 19.3283 70.1546 19.6733 71.1644 19.6733C72.0893 19.6733 72.8543 19.4151 73.4557 18.9039H73.456C74.0159 18.4282 74.3519 17.7853 74.4707 16.9658H71.0044V15.4908H75.9688L75.9901 15.6258C76.0307 15.8851 76.0594 16.1354 76.0594 16.3758C76.0594 17.7521 75.6399 18.8755 74.8166 19.702C73.8873 20.6872 72.6652 21.1758 71.1644 21.1758L71.1645 21.1758ZM114.271 21.1758C112.835 21.1758 111.615 20.6708 110.633 19.6764C110.633 19.6763 110.633 19.6762 110.633 19.6761C110.633 19.676 110.633 19.6759 110.633 19.6758C109.649 18.6921 109.161 17.4456 109.161 15.9858C109.161 14.5259 109.649 13.2794 110.633 12.2958C110.633 12.2956 110.633 12.2956 110.633 12.2954L110.633 12.2951C111.615 11.3006 112.835 10.7957 114.271 10.7957C115.705 10.7957 116.925 11.3007 117.907 12.3101C118.891 13.2936 119.379 14.5378 119.379 15.9857C119.379 17.4456 118.891 18.6921 117.908 19.6757L117.907 19.6761C116.925 20.6712 115.693 21.1758 114.271 21.1758L114.271 21.1758ZM77.4801 20.9608V11.0108H77.6401H83.4226V12.5158H79.0376V15.2483H82.9926V16.7233H79.0376V19.4583H83.4226V20.9608H77.4801ZM87.0595 20.9608V12.5158H84.3695V11.0108H91.307V12.5158H91.147H88.617V20.9608H87.0595ZM95.7407 20.9608V11.0108H97.2982V11.1708V20.9608H95.7407ZM101.219 20.9608V12.5158H98.5288V11.0108H105.466V12.5158H105.306H102.776V20.9608H101.219ZM120.761 20.9608V11.0108H122.518L126.987 18.1664L126.949 16.808V11.0108H128.506V20.9608H126.965L122.28 13.4436L122.319 14.8011V14.8033V20.9608H120.761ZM114.271 19.6733C115.282 19.6733 116.106 19.3287 116.779 18.6323L116.78 18.6311L116.781 18.6301C117.463 17.948 117.796 17.0699 117.796 15.9857C117.796 14.9042 117.463 14.0231 116.781 13.3413L116.78 13.3404L116.779 13.3394C116.107 12.6432 115.282 12.3007 114.271 12.3007C113.259 12.3007 112.434 12.6426 111.749 13.3388L111.749 13.3394C111.08 14.0378 110.746 14.9045 110.746 15.9857C110.746 17.0696 111.079 17.9335 111.749 18.6319L111.749 18.6326C112.435 19.3289 113.259 19.6732 114.271 19.6732V19.6733Z" fill="white"/>
    <path d="M33.1421 31.0768L16.1077 49.1568C16.1083 49.1605 16.1096 49.1637 16.1102 49.1674C16.6326 51.1305 18.4257 52.5762 20.5539 52.5762C21.4046 52.5762 22.2033 52.3462 22.8883 51.9424L22.9427 51.9105L42.1171 40.8462L33.1421 31.0768Z" fill="#EA4335"/>
    <path d="M50.3767 27.9975L50.3604 27.9863L42.0823 23.1874L32.7561 31.4863L42.1148 40.8438L50.3492 36.0925C51.7929 35.3132 52.7729 33.7913 52.7729 32.0362C52.7729 30.2938 51.806 28.7794 50.3767 27.9975Z" fill="#FBBC04"/>
    <path d="M16.1076 14.8412C16.0052 15.2188 15.9514 15.6143 15.9514 16.025V47.9732C15.9514 48.3831 16.0046 48.78 16.1083 49.1562L33.7289 31.5388L16.1076 14.8412Z" fill="#4285F4"/>
    <path d="M33.2683 32L42.0853 23.1856L22.9326 12.0813C22.2365 11.6643 21.424 11.4237 20.5545 11.4237C18.4264 11.4237 16.6309 12.8718 16.1083 14.8374C16.1077 14.8394 16.1077 14.8406 16.1077 14.8424L33.2683 32Z" fill="#34A853"/>
</svg>